<?xml version="1.0" encoding="utf-8"?>
<!-- Generator: Adobe Illustrator 21.0.2, SVG Export Plug-In . SVG Version: 6.00 Build 0)  -->
<svg version="1.1" id="Layer_1" xmlns="http://www.w3.org/2000/svg" xmlns:xlink="http://www.w3.org/1999/xlink" x="0px" y="0px"
	 viewBox="0 0 100 100" style="enable-background:new 0 0 100 100;" xml:space="preserve">
<path d="M76,40.8c-0.2-7.2-3.4-13.9-8.8-18.7c-9.8-8.6-24.6-8.6-34.4,0c-5.5,4.8-8.6,11.5-8.8,18.7c-0.2,7.1,2.5,14.1,7.6,19.2
	l0.2,0.2c3.7,3.4,6,8,6.6,12.9C37,73.3,36,74.5,36,76v9c0,5.5,4.5,10,10,10h8c5.5,0,10-4.5,10-10v-9c0-1.5-1-2.7-2.4-2.9
	c0.6-4.9,2.9-9.5,6.5-12.8l0.3-0.3C73.4,54.9,76.2,47.9,76,40.8z M60,77v3H40v-3H60z M54,91h-8c-3.3,0-6-2.7-6-6v-1h20v1
	C60,88.3,57.3,91,54,91z M64.2,55.7L64,55.8c-4.9,4.5-7.9,10.6-8.5,17.2H52V55.4l5.6-5.9c0.8-0.8,0.7-2.1-0.1-2.8
	c-0.8-0.8-2.1-0.7-2.8,0.1L50,51.7l-4.7-4.9c-0.8-0.8-2-0.8-2.8-0.1c-0.8,0.8-0.8,2-0.1,2.8l5.6,5.9V73h-3.6
	c-0.6-6.6-3.6-12.7-8.5-17.2l-0.1-0.1c-3.9-3.9-6-9.2-5.8-14.7c0.2-5.6,2.6-10.7,6.8-14.4c7.4-6.5,19-6.5,26.4,0
	c4.2,3.7,6.6,8.8,6.8,14.4C70.2,46.5,68.1,51.8,64.2,55.7z M48,11V7c0-1.1,0.9-2,2-2s2,0.9,2,2v4c0,1.1-0.9,2-2,2S48,12.1,48,11z
	 M89,50c0,1.1-0.9,2-2,2h-4c-1.1,0-2-0.9-2-2s0.9-2,2-2h4C88.1,48,89,48.9,89,50z M19,50c0,1.1-0.9,2-2,2h-4c-1.1,0-2-0.9-2-2
	s0.9-2,2-2h4C18.1,48,19,48.9,19,50z M75.8,73c0.8,0.8,0.8,2,0,2.8c-0.4,0.4-0.9,0.6-1.4,0.6s-1-0.2-1.4-0.6L70.2,73
	c-0.8-0.8-0.8-2,0-2.8s2-0.8,2.8,0L75.8,73z M23.8,23.8c-0.4,0.4-0.9,0.6-1.4,0.6s-1-0.2-1.4-0.6L18.2,21c-0.8-0.8-0.8-2,0-2.8
	c0.8-0.8,2-0.8,2.8,0l2.8,2.8C24.6,21.8,24.6,23.1,23.8,23.8z M29.8,70.2c0.8,0.8,0.8,2,0,2.8L27,75.8c-0.4,0.4-0.9,0.6-1.4,0.6
	s-1-0.2-1.4-0.6c-0.8-0.8-0.8-2,0-2.8l2.8-2.8C27.8,69.4,29.1,69.4,29.8,70.2z M81.8,21L79,23.8c-0.4,0.4-0.9,0.6-1.4,0.6
	s-1-0.2-1.4-0.6c-0.8-0.8-0.8-2,0-2.8l2.8-2.8c0.8-0.8,2-0.8,2.8,0C82.6,19,82.6,20.2,81.8,21z M52,27.5c0,1.1-0.9,2-2,2
	c-6.9,0-12.5,5.6-12.5,12.5c0,1.1-0.9,2-2,2s-2-0.9-2-2c0-9.1,7.4-16.5,16.5-16.5C51.1,25.5,52,26.4,52,27.5z"/>
</svg>
